Coordinates
version=1
nRows=12
nColumns=42
inDegrees=yes

Units are S.I. units (second, meters, Newtons, ...)
If the header above contains a line with 'inDegrees', this indicates whether rotational values are in degrees (yes) or radians (no).

endheader
time	pelvis_tilt	pelvis_list	pelvis_rotation	pelvis_tx	pelvis_ty	pelvis_tz	hip_flexion_r	hip_adduction_r	hip_rotation_r	knee_angle_r	knee_adduction_r	knee_angle_r_beta	ankle_angle_r	subtalar_angle_r	mtp_angle_r	hip_flexion_l	hip_adduction_l	hip_rotation_l	knee_angle_l	knee_adduction_l	knee_angle_l_beta	ankle_angle_l	subtalar_angle_l	mtp_angle_l	lumbar_extension	lumbar_bending	lumbar_rotation	arm_flex_r	arm_add_r	arm_rot_r	elbow_flex_r	pro_sup_r	wrist_flex_r	wrist_dev_r	arm_flex_l	arm_add_l	arm_rot_l	elbow_flex_l	pro_sup_l	wrist_flex_l	wrist_dev_l
      2.43000000	     10.27968879	     -1.89580649	      1.22926633	      0.06396128	      0.90828674	      0.24821761	     -8.02617715	      0.83006779	    -14.31718963	     26.04926706	      8.27570359	      0.45464548	     25.47909175	     22.08014137	     -7.50859874	     22.38862931	     -2.45462960	    -16.15565037	     36.32403637	     -4.32537220	      0.63397403	     14.47729031	      6.53384435	     -7.50859874	    -24.95813602	      7.78912047	      0.37238878	     18.23630415	    -12.99477419	     -9.39511945	     34.80880947	     90.00000001	      0.00000000	      0.00000000	     -4.18916742	     -4.43326738	    -29.05193073	     37.97035242	     90.00000001	      0.00000000	      0.00000000
      2.44000000	      9.97538229	     -2.11640288	      1.37333356	      0.07073953	      0.90678939	      0.24776709	     -8.24792698	      0.99929512	    -14.40153342	     26.02092023	      8.45779989	      0.45415073	     25.57622781	     21.94922051	     -7.50850191	     23.25850932	     -2.66378362	    -16.46008266	     35.06166806	     -4.07498004	      0.61194155	     14.47673802	      6.76153113	     -7.50850191	    -24.63002569	      8.13174806	      0.25307746	     18.53491865	    -12.91378855	     -9.28270038	     35.14181173	     90.00000001	      0.00000000	      0.00000000	     -4.40489703	     -4.34772493	    -28.99777273	     37.81851448	     90.00000001	      0.00000000	      0.00000000
      2.45000000	     10.32176503	     -1.77959549	      1.57815595	      0.07785985	      0.90684383	      0.24678552	     -9.61008362	      0.56329426	    -14.19467689	     25.29813065	      8.88176618	      0.44153567	     26.24306153	     22.14287959	     -7.50831652	     22.78639869	     -1.85204308	    -17.01383954	     32.72522963	     -4.34709334	      0.57116301	     14.52867968	      9.13779348	     -7.50831652	    -25.00969766	      7.88938629	      0.02275503	     18.81522608	    -12.96123660	     -8.66547998	     35.45029038	     90.00000001	      0.00000000	      0.00000000	     -4.14600731	     -4.39895083	    -29.13368446	     37.11325901	     90.00000001	      0.00000000	      0.00000000
      2.46000000	     10.42698350	     -1.73500200	      1.56846932	      0.08524924	      0.90607809	      0.24628967	    -10.45830094	      0.46445406	    -13.87405116	     24.96750284	      9.11003016	      0.43576513	     26.29291299	     22.18060601	     -7.50776187	     22.96966052	     -1.75313335	    -18.75110682	     31.36863404	     -4.85616407	      0.54748595	     15.05542312	     12.69256195	     -7.50776187	    -25.10590562	      7.88213671	     -0.00564264	     18.94805029	    -13.03437891	     -7.96377411	     35.92574845	     90.00000001	      0.00000000	      0.00000000	     -4.26721024	     -4.30840550	    -29.27426823	     36.94935428	     90.00000001	      0.00000000	      0.00000000
      2.47000000	     10.45568858	     -1.70126313	      1.67092952	      0.09241298	      0.90511044	      0.24559544	    -11.17303783	      0.40964670	    -13.51215091	     24.69724469	      9.34597706	      0.43104824	     26.51801544	     21.90904134	     -7.50738858	     23.20787115	     -1.52842310	    -19.50412116	     30.18446671	     -4.97209608	      0.52681833	     15.07116255	     14.31339854	     -7.50738858	    -25.13412208	      7.92623617	     -0.10265484	     19.09554499	    -13.04807192	     -7.57120736	     36.34575234	     90.00000001	      0.00000000	      0.00000000	     -4.28165736	     -4.24878957	    -29.38433943	     36.60334591	     90.00000001	      0.00000000	      0.00000000
      2.48000000	     10.46864037	     -1.71068739	      1.77190003	      0.09963976	      0.90399151	      0.24490266	    -11.83380737	      0.44186582	    -13.09234052	     24.47386351	      9.51828145	      0.42714950	     26.81722634	     21.52104113	     -7.50709416	     23.49489646	     -1.38062392	    -20.20034882	     29.31977272	     -5.03835446	      0.51172657	     15.08045405	     15.86584900	     -7.50709416	    -25.13675164	      8.01011138	     -0.18406850	     19.19739992	    -13.06602654	     -7.20081499	     36.78666932	     90.00000001	      0.00000000	      0.00000000	     -4.27714186	     -4.19441261	    -29.49759781	     36.18792206	     90.00000001	      0.00000000	      0.00000000
      2.49000000	     10.40425530	     -1.78768557	      1.93272081	      0.10685027	      0.90261991	      0.24413622	    -12.35537133	      0.59936207	    -12.72311858	     24.32500094	      9.58598962	      0.42455136	     27.26466188	     21.20438675	     -7.50694356	     23.91114448	     -1.24489127	    -20.55120912	     28.75321584	     -5.06770676	      0.50183829	     15.00182252	     16.84904271	     -7.50694356	    -25.04817963	      8.18036822	     -0.27697797	     19.27451253	    -13.06681429	     -6.97209915	     37.16534152	     90.00000001	      0.00000000	      0.00000000	     -4.26811196	     -4.14301300	    -29.55228575	     35.72545015	     90.00000001	      0.00000000	      0.00000000
      2.50000000	     10.46689812	     -1.85511228	      1.95116828	      0.11434835	      0.90142249	      0.24360813	    -13.06599108	      0.74407799	    -12.02567984	     24.07698007	      9.72270735	      0.42022258	     27.30462011	     20.41338766	     -7.50663890	     24.18745307	     -1.24922825	    -21.61967258	     28.49144252	     -5.31385256	      0.49726948	     15.20460002	     18.90087003	     -7.50663890	    -25.09698341	      8.27553581	     -0.25177342	     19.27297866	    -13.12188926	     -6.51617496	     37.62316803	     90.00000001	      0.00000000	      0.00000000	     -4.29591345	     -4.04706957	    -29.77858956	     35.40683140	     90.00000001	      0.00000000	      0.00000000
      2.51000000	     10.41492674	     -1.91009611	      2.06788164	      0.12178693	      0.89988854	      0.24290747	    -13.49853296	      0.85438691	    -11.85577919	     24.20016205	      9.67367355	      0.42237251	     27.39185839	     20.39254114	     -7.50662767	     24.52493969	     -1.11905637	    -21.72568063	     28.41197011	     -5.22360903	      0.49588243	     15.18281793	     18.96316536	     -7.50662767	    -24.99897098	      8.37507883	     -0.31317714	     19.34357706	    -13.06321739	     -6.49493986	     37.74967773	     90.00000001	      0.00000000	      0.00000000	     -4.41624745	     -3.98810344	    -29.78296360	     35.24988363	     90.00000001	      0.00000000	      0.00000000
      2.52000000	     10.39148889	     -2.00184398	      2.22159986	      0.12942887	      0.89837296	      0.24210651	    -14.14866872	      1.04954907	    -11.38563409	     23.93669359	      9.78071139	      0.41777412	     28.11857205	     19.88900814	     -7.50653707	     24.88916979	     -0.94631406	    -22.19118575	     28.56734765	     -5.57501252	      0.49859427	     15.07359895	     19.84790502	     -7.50653707	    -24.91752500	      8.53826306	     -0.36556180	     19.18063959	    -13.08745677	     -6.29779334	     38.35928644	     90.00000001	      0.00000000	      0.00000000	     -4.30080315	     -3.97342125	    -29.88111852	     34.50473838	     90.00000001	      0.00000000	      0.00000000
      2.53000000	     10.37070317	     -2.04235665	      2.26298418	      0.13717238	      0.89683992	      0.24149382	    -14.62469426	      1.14003900	    -11.15375858	     24.07696374	      9.70989596	      0.42022229	     28.13580024	     19.84495520	     -7.50652552	     25.01782504	     -0.78141158	    -22.25768586	     28.66385141	     -5.55679654	      0.50027858	     15.08043087	     19.95849604	     -7.50652552	    -24.83848902	      8.57793704	     -0.37962222	     19.15562071	    -13.02117191	     -6.26335891	     38.44269493	     90.00000001	      0.00000000	      0.00000000	     -4.45794008	     -3.92201598	    -29.91265062	     34.35683473	     90.00000001	      0.00000000	      0.00000000
      2.54000000	     10.56065185	     -2.25297043	      2.19410023	      0.14528196	      0.89569760	      0.24125395	    -15.66623727	      1.54712534	     -9.96164879	     23.40650007	      9.86414578	      0.40852049	     28.15535152	     18.36595987	     -7.50625131	     25.08732620	     -1.09299467	    -23.54555705	     29.34773429	     -6.00759932	      0.51221459	     15.52835341	     22.28394353	     -7.50625131	    -24.99518816	      8.75698021	     -0.15532488	     18.90355058	    -13.13620170	     -5.78206450	     39.08434755	     90.00000001	      0.00000000	      0.00000000	     -4.32572730	     -3.83398853	    -30.39155099	     33.72558826	     90.00000001	      0.00000000	      0.00000000
